HIERARCHY
ROOT Hips
{
  OFFSET 5.84602e-005 68.8428 3.50346
  CHANNELS 6 Xposition Yposition Zposition Zrotation Xrotation Yrotation
  JOINT Spine
  {
    OFFSET 0 8.597 -4.6522
    CHANNELS 3 Zrotation Xrotation Yrotation
    JOINT Spine1
    {
      OFFSET 0 7.8454 0.4098
      CHANNELS 3 Zrotation Xrotation Yrotation
      JOINT Spine2
      {
        OFFSET 0 9.7078 -2.1609
        CHANNELS 3 Zrotation Xrotation Yrotation
        JOINT Neck
        {
          OFFSET 0 21.8761 -0.4549
          CHANNELS 3 Zrotation Xrotation Yrotation
          JOINT Head
          {
            OFFSET 0 12.3537 3.3602
            CHANNELS 3 Zrotation Xrotation Yrotation
            End Site
            {
              OFFSET 0.0001 18.9506 0.5657
            }
          }
        }
        JOINT LeftShoulder
        {
          OFFSET 2.2086 21.1115 7.2329
          CHANNELS 3 Zrotation Xrotation Yrotation
          JOINT LeftArm
          {
            OFFSET 13.1193 3.0282 -4.8998
            CHANNELS 3 Zrotation Xrotation Yrotation
            JOINT LeftForeArm
            {
              OFFSET 27.4081 -0.0973053 -0.2375
              CHANNELS 3 Zrotation Xrotation Yrotation
              JOINT LeftHand
              {
                OFFSET 22.8641 0.0662994 -0.1369
                CHANNELS 3 Zrotation Xrotation Yrotation
                JOINT LeftHandIndex1
                {
                  OFFSET 8.8614 0.775009 2.4612
                  CHANNELS 3 Zrotation Xrotation Yrotation
                  JOINT LeftHandIndex2
                  {
                    OFFSET 3.3146 -0.808304 0.5841
                    CHANNELS 3 Zrotation Xrotation Yrotation
                    JOINT LeftHandIndex3
                    {
                      OFFSET 2.2628 -0.552002 0.3989
                      CHANNELS 3 Zrotation Xrotation Yrotation
                      End Site
                      {
                        OFFSET 1.6102 -0.4807 0.2612
                      }
                    }
                  }
                }
                JOINT LeftHandMiddle1
                {
                  OFFSET 8.9937 0.895004 0.2143
                  CHANNELS 3 Zrotation Xrotation Yrotation
                  JOINT LeftHandMiddle2
                  {
                    OFFSET 4.0984 0.0113983 -0.0242
                    CHANNELS 3 Zrotation Xrotation Yrotation
                    JOINT LeftHandMiddle3
                    {
                      OFFSET 2.2716 0.00689697 -0.0138001
                      CHANNELS 3 Zrotation Xrotation Yrotation
                      End Site
                      {
                        OFFSET 2.0404 -0.1441 0.0027
                      }
                    }
                  }
                }
                JOINT LeftHandRing1
                {
                  OFFSET 8.5234 0.597198 -2.0164
                  CHANNELS 3 Zrotation Xrotation Yrotation
                  JOINT LeftHandRing2
                  {
                    OFFSET 3.7188 -0.188293 -0.2328
                    CHANNELS 3 Zrotation Xrotation Yrotation
                    JOINT LeftHandRing3
                    {
                      OFFSET 2.1191 -0.106598 -0.1332
                      CHANNELS 3 Zrotation Xrotation Yrotation
                      End Site
                      {
                        OFFSET 1.8737 -0.2304 -0.0886
                      }
                    }
                  }
                }
                JOINT LeftHandPinky1
                {
                  OFFSET 7.9094 -0.601089 -3.4825
                  CHANNELS 3 Zrotation Xrotation Yrotation
                  JOINT LeftHandPinky2
                  {
                    OFFSET 2.2874 -0.477005 -0.6314
                    CHANNELS 3 Zrotation Xrotation Yrotation
                    JOINT LeftHandPinky3
                    {
                      OFFSET 1.6774 -0.349396 -0.4633
                      CHANNELS 3 Zrotation Xrotation Yrotation
                      End Site
                      {
                        OFFSET 1.4888 -0.4091 -0.3416
                      }
                    }
                  }
                }
                JOINT LeftHandThumb1
                {
                  OFFSET 1.833 -1.3875 1.3896
                  CHANNELS 3 Zrotation Xrotation Yrotation
                  JOINT LeftHandThumb2
                  {
                    OFFSET 3.4129 -1.121 2.5732
                    CHANNELS 3 Zrotation Xrotation Yrotation
                    JOINT LeftHandThumb3
                    {
                      OFFSET 2.2474 -0.804199 1.6192
                      CHANNELS 3 Zrotation Xrotation Yrotation
                      End Site
                      {
                        OFFSET 1.6527 -0.5689 1.1317
                      }
                    }
                  }
                }
              }
            }
          }
        }
        JOINT RightShoulder
        {
          OFFSET -2.2086 21.1115 7.2329
          CHANNELS 3 Zrotation Xrotation Yrotation
          JOINT RightArm
          {
            OFFSET -13.1216 3.0287 -4.9007
            CHANNELS 3 Zrotation Xrotation Yrotation
            JOINT RightForeArm
            {
              OFFSET -27.4081 -0.0973053 -0.2375
              CHANNELS 3 Zrotation Xrotation Yrotation
              JOINT RightHand
              {
                OFFSET -22.8641 0.0664063 -0.1369
                CHANNELS 3 Zrotation Xrotation Yrotation
                JOINT RightHandIndex1
                {
                  OFFSET -8.8614 0.774994 2.4612
                  CHANNELS 3 Zrotation Xrotation Yrotation
                  JOINT RightHandIndex2
                  {
                    OFFSET -3.3146 -0.808304 0.5841
                    CHANNELS 3 Zrotation Xrotation Yrotation
                    JOINT RightHandIndex3
                    {
                      OFFSET -2.2628 -0.552002 0.3989
                      CHANNELS 3 Zrotation Xrotation Yrotation
                      End Site
                      {
                        OFFSET -1.6102 -0.4807 0.2612
                      }
                    }
                  }
                }
                JOINT RightHandMiddle1
                {
                  OFFSET -8.9937 0.894989 0.2143
                  CHANNELS 3 Zrotation Xrotation Yrotation
                  JOINT RightHandMiddle2
                  {
                    OFFSET -4.0984 0.0113983 -0.0242
                    CHANNELS 3 Zrotation Xrotation Yrotation
                    JOINT RightHandMiddle3
                    {
                      OFFSET -2.2716 0.00691223 -0.0138001
                      CHANNELS 3 Zrotation Xrotation Yrotation
                      End Site
                      {
                        OFFSET -2.0404 -0.1441 0.0027
                      }
                    }
                  }
                }
                JOINT RightHandRing1
                {
                  OFFSET -8.5234 0.597198 -2.0164
                  CHANNELS 3 Zrotation Xrotation Yrotation
                  JOINT RightHandRing2
                  {
                    OFFSET -3.7188 -0.188309 -0.2328
                    CHANNELS 3 Zrotation Xrotation Yrotation
                    JOINT RightHandRing3
                    {
                      OFFSET -2.1191 -0.106598 -0.1332
                      CHANNELS 3 Zrotation Xrotation Yrotation
                      End Site
                      {
                        OFFSET -1.8737 -0.2304 -0.0886
                      }
                    }
                  }
                }
                JOINT RightHandPinky1
                {
                  OFFSET -7.9094 -0.601105 -3.4825
                  CHANNELS 3 Zrotation Xrotation Yrotation
                  JOINT RightHandPinky2
                  {
                    OFFSET -2.2874 -0.477005 -0.6314
                    CHANNELS 3 Zrotation Xrotation Yrotation
                    JOINT RightHandPinky3
                    {
                      OFFSET -1.6774 -0.349396 -0.4633
                      CHANNELS 3 Zrotation Xrotation Yrotation
                      End Site
                      {
                        OFFSET -1.4888 -0.4091 -0.3416
                      }
                    }
                  }
                }
                JOINT RightHandThumb1
                {
                  OFFSET -1.833 -1.38751 1.3896
                  CHANNELS 3 Zrotation Xrotation Yrotation
                  JOINT RightHandThumb2
                  {
                    OFFSET -3.41299 -1.12099 2.5732
                    CHANNELS 3 Zrotation Xrotation Yrotation
                    JOINT RightHandThumb3
                    {
                      OFFSET -2.24741 -0.804108 1.6192
                      CHANNELS 3 Zrotation Xrotation Yrotation
                      End Site
                      {
                        OFFSET -1.6527 -0.5689 1.1317
                      }
                    }
                  }
                }
              }
            }
          }
        }
      }
    }
  }
  JOINT RightUpLeg
  {
    OFFSET -9.1966 3.8861 -0.7581
    CHANNELS 3 Zrotation Xrotation Yrotation
    JOINT RightLeg
    {
      OFFSET -0.7359 -41.0265 0
      CHANNELS 3 Zrotation Xrotation Yrotation
      JOINT RightFoot
      {
        OFFSET 0 -40.2855 0
        CHANNELS 3 Zrotation Xrotation Yrotation
        JOINT RightToeBase
        {
          OFFSET 0 -5.6122 11.7359
          CHANNELS 3 Zrotation Xrotation Yrotation
          End Site
          {
            OFFSET 0 0 7.8731
          }
        }
      }
    }
  }
  JOINT LeftUpLeg
  {
    OFFSET 9.1965 3.8864 -0.7581
    CHANNELS 3 Zrotation Xrotation Yrotation
    JOINT LeftLeg
    {
      OFFSET 0.7359 -41.0268 0
      CHANNELS 3 Zrotation Xrotation Yrotation
      JOINT LeftFoot
      {
        OFFSET 0 -40.2855 0
        CHANNELS 3 Zrotation Xrotation Yrotation
        JOINT LeftToeBase
        {
          OFFSET 0 -5.6122 11.7359
          CHANNELS 3 Zrotation Xrotation Yrotation
          End Site
          {
            OFFSET 0 0 7.8731
          }
        }
      }
    }
  }
}
MOTION
Frames:	5
Frame Time:	0.0333333
0.180866 3.76957 5.42577 -0 -26.0015 -0 0.391989 9.78762 -7.28491 2.10834 19.4416 -14.9709 2.10834 19.4416 -14.9709 -0.232714 -0.102519 15.6012 22.3566 -9.26326 -22.2153 -3.97561e-007 -5.35037e-007 0.0716884 43.2084 -7.76339 -67.4032 16.9224 7.9174 -80.9267 -2.6111 -41.5695 -13.4422 -4.77083e-015 4.77083e-015 -6.36111e-015 -4.77083e-015 1.59028e-015 -6.36111e-015 3.57812e-015 3.18055e-015 -0 -4.77083e-015 4.77083e-015 -6.36111e-015 -0.0146445 -8.61454e-005 2.47241e-006 -1.03368e-014 -4.77083e-015 -0 -4.77083e-015 4.77083e-015 -6.36111e-015 -0.0187979 -0.00117808 6.1539e-005 -2.78299e-015 -1.59028e-015 -0 -4.77083e-015 4.77083e-015 -6.36111e-015 -0.0122343 -0.00323966 0.000674361 1.98785e-015 -1.59028e-015 -9.54166e-015 -4.77083e-015 4.77083e-015 -6.36111e-015 -4.77083e-015 1.59028e-015 -6.36111e-015 3.57812e-015 3.18055e-015 -0 5.76447e-009 -2.16833e-006 -3.34251e-006 3.43039 -35.1942 48.8776 2.38542e-015 1.59028e-015 -3.18055e-015 1.98785e-015 -1.59028e-015 -1.59028e-015 1.59028e-015 -1.59028e-015 -3.18055e-015 -3.97569e-016 1.59028e-015 -1.59028e-015 0 0 -3.18055e-015 1.59028e-015 -1.59028e-015 -3.18055e-015 0.0149609 -8.85764e-005 2.18787e-007 1.42173e-007 -3.03003e-007 -2.7774e-007 1.59028e-015 -1.59028e-015 -3.18055e-015 0.0189806 -0.00118838 -5.98419e-005 -1.59028e-015 3.18055e-015 1.59028e-015 1.59028e-015 -1.59028e-015 -3.18055e-015 0.0123398 -0.00326534 -0.000680422 1.59028e-015 -3.18055e-015 1.59028e-015 1.59028e-015 -1.59028e-015 -3.18055e-015 -3.97569e-016 1.59028e-015 -1.59028e-015 0 0 -3.18055e-015 -46.7432 -69.5525 -48.6459 0.106474 31.6778 -1.97363 -3.95168 27.5887 0.970576 -8.02998e-008 8.68648e-006 4.32991e-006 -167.822 -71.3951 -160.433 -179.964 46.645 -175.115 3.43712 -4.40849 3.40652 3.79152e-022 1.59028e-015 -5.68727e-022 
0.181131 3.7678 5.42558 -0 -26.0015 -0 0.391975 9.78761 -7.28491 2.10834 19.4416 -14.9709 2.10834 19.4416 -14.9709 -0.234977 -0.103103 15.5492 22.4314 -9.25837 -22.2032 -5.76979e-007 5.96839e-007 0.0716874 42.9484 -7.76155 -67.303 16.8699 7.88365 -80.9762 -2.57854 -41.4345 -13.3814 1.43125e-014 -2.54444e-014 3.18055e-015 3.97569e-016 -2.22639e-014 6.36111e-015 -3.18055e-015 -2.54444e-014 -0 1.43125e-014 -2.54444e-014 3.18055e-015 -0.0146173 -8.84039e-005 1.03945e-006 7.55382e-015 -1.59028e-015 -9.54166e-015 1.43125e-014 -2.54444e-014 3.18055e-015 -0.0187476 -0.00117237 6.11066e-005 -2.62846e-006 -6.99263e-007 1.42003e-007 1.43125e-014 -2.54444e-014 3.18055e-015 -0.0122355 -0.00323854 0.000675043 4.77083e-015 0 -3.18055e-015 1.43125e-014 -2.54444e-014 3.18055e-015 3.97569e-016 -2.22639e-014 6.36111e-015 -3.18055e-015 -2.54444e-014 -0 5.76402e-009 -2.16833e-006 -3.34251e-006 3.4304 -35.1942 48.8776 1.40368e-007 -3.02958e-007 -2.77779e-007 -1.40368e-007 3.02958e-007 2.77779e-007 1.19271e-015 -1.59028e-015 -0 7.95139e-016 1.59028e-015 -0 3.97569e-016 1.59028e-015 1.59028e-015 1.19271e-015 -1.59028e-015 -0 0.0149733 -9.08026e-005 -4.07032e-007 -3.97569e-016 3.18055e-015 -3.18055e-015 1.19271e-015 -1.59028e-015 -0 0.0190247 -0.00119247 -5.75542e-005 1.19271e-015 3.18055e-015 -3.18055e-015 1.19271e-015 -1.59028e-015 -0 0.0123396 -0.00326564 -0.000679821 -1.41849e-007 3.0338e-007 2.77832e-007 1.19271e-015 -1.59028e-015 -0 7.95139e-016 1.59028e-015 -0 3.97569e-016 1.59028e-015 1.59028e-015 -45.9479 -69.3683 -47.7197 0.102322 30.6869 -1.94823 -3.96301 27.902 0.984857 -2.70791e-007 3.07274e-006 1.71506e-006 -167.825 -71.3908 -160.435 -179.964 46.6433 -175.115 3.43729 -4.4058 3.40667 1.04267e-021 -1.59028e-015 -1.89576e-022 
0.181366 3.76605 5.4254 -0 -26.0015 -0 0.391989 9.78762 -7.28492 2.10834 19.4416 -14.9709 2.10834 19.4416 -14.9709 -0.237226 -0.104175 15.4971 22.5063 -9.25344 -22.1912 -5.86314e-007 5.99604e-007 0.0716874 42.6881 -7.76016 -67.2026 16.8174 7.84995 -81.0258 -2.54621 -41.2994 -13.3208 1.19271e-015 0 -3.18055e-015 3.28604e-006 6.58048e-007 4.69261e-007 -7.15625e-015 -1.59028e-015 -6.36111e-015 1.19271e-015 0 -3.18055e-015 -0.0146088 -8.79049e-005 -6.11385e-008 -6.36111e-015 4.77083e-015 -0 1.19271e-015 0 -3.18055e-015 -0.018779 -0.00117592 6.23715e-005 3.57812e-015 4.77083e-015 -6.36111e-015 1.19271e-015 0 -3.18055e-015 -0.0122391 -0.00324194 0.000672221 -7.55382e-015 -1.59028e-015 -0 1.19271e-015 0 -3.18055e-015 3.28604e-006 6.58048e-007 4.69261e-007 -7.15625e-015 -1.59028e-015 -6.36111e-015 5.76445e-009 -2.16833e-006 -3.34251e-006 3.43038 -35.1942 48.8776 -1.19271e-015 0 3.18055e-015 4.87581e-007 1.37393e-006 1.64447e-007 7.95139e-016 1.59028e-015 -0 -4.22512e-007 4.50845e-008 3.5605e-008 3.97569e-016 -1.59028e-015 -1.59028e-015 7.95139e-016 1.59028e-015 -0 0.0149729 -9.0757e-005 -3.68381e-007 -1.42174e-007 3.03002e-007 2.7774e-007 7.95139e-016 1.59028e-015 -0 0.0189817 -0.00119109 -5.92236e-005 1.98785e-015 -1.59028e-015 1.59028e-015 7.95139e-016 1.59028e-015 -0 0.0123384 -0.00326605 -0.000680354 7.95139e-016 -3.18055e-015 1.59028e-015 7.95139e-016 1.59028e-015 -0 -4.22512e-007 4.50845e-008 3.5605e-008 3.97569e-016 -1.59028e-015 -1.59028e-015 -45.1637 -69.1801 -46.8056 0.0955532 29.6996 -1.92195 -3.97318 28.2161 0.998961 -1.44178e-007 8.04369e-006 3.86798e-006 -167.824 -71.3922 -160.434 -179.965 46.6474 -175.114 3.43743 -4.40308 3.4068 4.40651e-015 0 1.01682e-013 
0.181572 3.76432 5.42521 -0 -26.0015 -0 0.391988 9.78761 -7.28491 2.10834 19.4416 -14.9709 2.10834 19.4416 -14.9709 -0.239583 -0.104834 15.4451 22.5811 -9.24852 -22.1792 -5.82505e-007 5.99619e-007 0.0716874 42.4275 -7.75922 -67.1022 16.7648 7.81628 -81.0754 -2.51416 -41.1642 -13.2605 -2.78299e-015 -3.18055e-015 -0 3.30714e-006 6.57166e-007 4.67177e-007 5.56597e-015 0 -3.18055e-015 -2.78299e-015 -3.18055e-015 -0 -0.0146285 -8.80454e-005 8.15834e-007 -2.38542e-015 -1.59028e-015 3.18055e-015 -2.78299e-015 -3.18055e-015 -0 -0.0187621 -0.00117514 6.10343e-005 -4.80117e-007 3.03694e-007 3.33985e-007 -2.78299e-015 -3.18055e-015 -0 -0.012234 -0.00324007 0.000673672 -4.8099e-007 3.03994e-007 3.33894e-007 -2.78299e-015 -3.18055e-015 -0 3.30714e-006 6.57166e-007 4.67177e-007 5.56597e-015 0 -3.18055e-015 -1.83036e-007 -1.0345e-006 -4.27053e-006 3.43038 -35.1942 48.8776 3.97569e-016 0 -0 -3.32343e-007 8.90108e-007 7.63803e-008 1.98785e-015 1.59028e-015 -6.36111e-015 -3.97569e-016 3.18055e-015 -7.95139e-015 -1.19271e-015 0 -4.77083e-015 1.98785e-015 1.59028e-015 -6.36111e-015 0.0149726 -9.12179e-005 -1.82264e-006 1.19271e-015 -1.59028e-015 -0 1.98785e-015 1.59028e-015 -6.36111e-015 0.0189817 -0.00118968 -5.90255e-005 -1.59028e-015 0 4.77083e-015 1.98785e-015 1.59028e-015 -6.36111e-015 0.0123398 -0.00326538 -0.000679577 -7.95139e-016 1.59028e-015 -3.18055e-015 1.98785e-015 1.59028e-015 -6.36111e-015 -3.97569e-016 3.18055e-015 -7.95139e-015 -1.19271e-015 0 -4.77083e-015 -44.391 -68.9875 -45.9036 0.0868458 28.7155 -1.89515 -3.98244 28.5312 1.01294 -9.50397e-007 3.27497e-007 2.72215e-006 -167.83 -71.3809 -160.44 -179.963 46.6388 -175.114 3.43756 -4.40047 3.40692 -9.00485e-022 7.95139e-016 -3.79152e-022 
0.181749 3.76262 5.42503 -0 -26.0015 -0 0.391988 9.78761 -7.28491 2.10834 19.4416 -14.9709 2.10834 19.4416 -14.9709 -0.241854 -0.105711 15.3931 22.6559 -9.24357 -22.1671 -5.82505e-007 5.99619e-007 0.0716874 42.1667 -7.75873 -67.0017 16.7122 7.78266 -81.125 -2.48233 -41.029 -13.2004 -2.38542e-014 -6.36111e-015 3.18055e-015 -3.2005e-007 1.87583e-006 -5.94911e-008 -3.18055e-015 -1.59028e-015 -0 -2.38542e-014 -6.36111e-015 3.18055e-015 -0.0146176 -8.88938e-005 -1.33686e-006 7.95139e-016 3.18055e-015 3.18055e-015 -2.38542e-014 -6.36111e-015 3.18055e-015 -0.0187677 -0.00117326 6.12211e-005 9.93923e-015 -6.36111e-015 -0 -2.38542e-014 -6.36111e-015 3.18055e-015 -0.0122508 -0.00323955 0.000675442 -5.15627e-007 3.07887e-007 3.3315e-007 -2.38542e-014 -6.36111e-015 3.18055e-015 -3.2005e-007 1.87583e-006 -5.94911e-008 -3.18055e-015 -1.59028e-015 -0 -1.83036e-007 -1.0345e-006 -4.27053e-006 3.43038 -35.1942 48.8776 3.97569e-016 0 -0 -3.32343e-007 8.90108e-007 7.63803e-008 1.98785e-015 1.59028e-015 -6.36111e-015 -3.97569e-016 3.18055e-015 -7.95139e-015 -1.19271e-015 0 -4.77083e-015 1.98785e-015 1.59028e-015 -6.36111e-015 0.014971 -9.01925e-005 -1.63958e-006 -1.19271e-015 3.18055e-015 -3.18055e-015 1.98785e-015 1.59028e-015 -6.36111e-015 0.0189817 -0.00118968 -5.90255e-005 -1.59028e-015 0 4.77083e-015 1.98785e-015 1.59028e-015 -6.36111e-015 0.0123398 -0.00326538 -0.000679577 -7.95139e-016 1.59028e-015 -3.18055e-015 1.98785e-015 1.59028e-015 -6.36111e-015 -3.97569e-016 3.18055e-015 -7.95139e-015 -1.19271e-015 0 -4.77083e-015 -43.6299 -68.7905 -45.014 0.0768224 27.7346 -1.86818 -3.99115 28.8473 1.0269 7.24246e-007 4.05555e-006 -1.76116e-006 -167.831 -71.3817 -160.44 -179.964 46.642 -175.114 3.43765 -4.39791 3.40701 -2.04191e-013 0 -1.02524e-014 
